<svg id="Layer_1" data-name="Layer 1" xmlns="http://www.w3.org/2000/svg" viewBox="0 0 198.72 297.99"><path d="M249.33,100.3a99.29,99.29,0,0,1-7.93,38.94,95.34,95.34,0,0,1-4.87,9.82A99.48,99.48,0,0,1,209,180.24c-2.61,1.95-5.37,3.74-8.17,5.44a99.27,99.27,0,0,1-99.92,1,52,52,0,0,1,23-31.12A61.19,61.19,0,1,0,150,39.07h0a61.18,61.18,0,0,0-61.16,61.2h0a60,60,0,0,0,.78,9.65,109.31,109.31,0,0,0-30.14,31.18,99,99,0,0,1-8.8-40.81V1H150A99.34,99.34,0,0,1,249.33,100.3Z" transform="translate(-50.64 -1)" style="fill:#699ed5"/><path d="M241,159.73A109.48,109.48,0,0,1,211.42,190l-.94.64A61.17,61.17,0,1,1,150,138.48h0a60.83,60.83,0,0,1,26.7,6.12l.46-.27A52.06,52.06,0,0,0,200,113.75a99,99,0,0,0-50-13.47h0a99.33,99.33,0,0,0-99.34,99.31V299H150a99.38,99.38,0,0,0,99.38-99.34h0A99.06,99.06,0,0,0,241,159.73Z" transform="translate(-50.64 -1)" style="fill:#a867ab"/></svg>